<?xml version="1.0" encoding="utf-8"?>
<!-- Generator: Adobe Illustrator 16.0.0, SVG Export Plug-In . SVG Version: 6.00 Build 0)  -->
<!DOCTYPE svg PUBLIC "-//W3C//DTD SVG 1.1//EN" "http://www.w3.org/Graphics/SVG/1.1/DTD/svg11.dtd">
<svg version="1.1" xmlns="http://www.w3.org/2000/svg" xmlns:xlink="http://www.w3.org/1999/xlink" x="0px" y="0px" width="612px"
	 height="792px" viewBox="0 0 612 792" enable-background="new 0 0 612 792" xml:space="preserve">
<g id="maunway">
	<path fill="#912323" d="M278.625,447.75l4.198-15.039L287,417.75h11.5c0,0,1.375-15.125,5.25-16.875
		c3.75-4.625,7.625-11.125,8.625-13s2.375-6.25,2.25-8.125s6.25-10.375,6.625-10.875s10-3.375,12.375-3.375
		c0.5-0.375,5.625-2.25,8.75,0.875c4.625,2,7.375,2.625,12.625,8.5s11.75,11.375,13.375,17.875c2.625,2.5,4.75,6.375,5.75,9.125
		s2.5,10.625-1.25,15.625c0,1-1.625,4.125-0.375,6.75c1.5,1.625,13,17.875,13,17.875l-18.375-1.375l-3-0.25l3,5.125l6.75,9.5
		l8.25,12.5c0,0,0.625,1.875-1.125,3.25s-2.875,2.25-2.875,2.25h-4.25h-0.75l-0.125,5.25l-0.375,0.75h-6.5
		c0,0-0.375-1.125-1.625-3.625s-5-8.25-5-8.25l-3.5-6.875L354.25,456c0,0-0.125-1.25-0.375-2.25s-1.5-3.5-1.5-3.5L351,449.625
		l-1.25-1l0.125-1l-4.25,2l-6.125,3.5l-5.75,3.25l-4.875,1.875c0,0-3.875,1.625-8,0.5s-16.75-4.25-16.75-4.25l-22.5-6.125
		L278.625,447.75z"/>
</g>
<g id="barangka">
</g>
<g id="additionhiils">
	<path fill="#EDFF00" d="M206.5,400.5c16.862-28.715,16.92-28.971,18.167-33.333c0.833-1.5,2.167-2.567,2.167-2.567l24.667-3.934
		l2.5-13c0,0,3.333-2.667,10.5,7.833c1.833,1,6.667-2,6.667-2l-1.792-4.25l2.5-4.5V343H266.5l-6.75-5l-1.625-1l1.125-1.25
		c0,0,0.125-4.75,0-6.125s-5.5-1.375-5.5-1.375l-1-2.875L246,318.5c0,0,36.25-16.125,36.5-15.75s39.375,1.375,39.375,1.375
		l-3.25-9.875l-0.5-1l21.25-5.375l-1.75-3.5l5.5-0.75l7.5,5.75l7.75-1.375c1.375,0.5,3.375,2.25-1.25,5.875
		c-3.625,4.875-4.75,8.5-0.125,13.375c1.75,0.75,3.009,6,3.009,6s-0.134,1.375,4.491,1.75c0.125-0.125,12.75,6.625,12.625,8
		c-0.375-0.125-6.25,3-3.75,5.5c2.25,1.125,9.125,3,9.125,3s-1.375,5.625-3,7.125s-6,15.75-6.875,17.5S359,349.667,359,349.667
		l-7.167-3l-9-3.833l-13.5-5.167l-17.833-4.333c0,0-7.167-1.375-8.667-1.5s-10.667,0.667-10.667,0.667h-11.5l-9.517-0.833L271,334.5
		l1.5,3l0.875,4.563l2.625,4.813l4.125,6l13,0.375l7.625,0.875l19.25,13l0.125,1.5c0,0-4.625,5.375-5.875,8.5s1.375,4-2.75,7.875
		c0.5,0.5-2.75,5.75-2.75,5.75s-4.625,8-7.125,10.75c-2.25,4-3.957,6.187-2.958,8.833S297,415.75,297,415.75l-10.5,0.625
		l-6.028,19.211l-3.347,10.664c0,0-21.875-3.875-28.375-8.875C246.875,436.75,234.833,425,234.833,425l-4.958-6.125l-10.5-8.875
		L212,405.166L206.5,400.5"/>
</g>
<g id="WACK_WACK">
	<path fill="#EAD3D3" d="M431.23,202.333c0,0,25.668,4.833,31.334,5.5s18.999,1.5,23.166,0.667s23.334-8.167,26.667-9.333
		s4.999,14.834,5.333,20.167s0.5,26.5,0,29.833c-0.667,3.333-10.834,35.5-12.667,42.833c-0.522,2.092-1.168,4.266-1.823,6.304
		c-1.641,5.106-3.343,9.363-3.343,9.363l-0.334,8.167L506.23,317l9,6.667l2,4c0,0-1.834,4.167-1.834,6.167s-0.229,2.354-0.229,2.354
		s1.443,1.188,2.878,1.75s0.378,1.813,0,3.563s-0.44,12.625-0.44,12.625l2.253,33.53l1.872,27.845v2.25l-29.75,37.75l-35.487-29.36
		l-83.263-68.89l0.815-3.906l1.685-8.061l4.75-6.658l1.25-7.125l-9.666-4.857l4.291-3.643l-0.862-1.061l-8.138-6.314
		c0,0-8.784-0.761-8.284-3.011s-5.843-12.286-5.843-12.286l3.127-4.953l3.75-5.75l-1.969-1.378l-7.775,1.059l-7.132-6.181
		l-5.624,0.5C337.241,283.668,431.23,202.333,431.23,202.333z"/>
	<path fill="#EC4343" stroke="#000000" stroke-miterlimit="10" d="M344,283.625"/>
	<path fill="#EC4343" stroke="#000000" stroke-miterlimit="10" d="M343.999,283.125"/>
</g>
<g id="highway_hills">
	<path fill="#E02424" d="M354.375,371.5l19.5-13.125L486.25,451.25l0.75,1.5c0,0-1.75,1.875-3.625,4.375S479,463.75,478.5,465.5
		s-6.25,4.75-8.625,5.875s-5.5,2.875-5.5,2.875l-0.375,3.5c0,0-4.375,3.625-6.5,6.125s-5.125,5.625-6,7.5s-3.375,4.5-3.375,4.5
		s-2.75,1.375-5.375,1.375s-12.313,8.125-12.313,8.125L419.25,496l7.125-8.625l3.375-5.75l-12.5-8.375l-7.875,8.125l-1.918,3.403
		l-1.957,3.472l-2.5,4l-1.5,0.875l-0.875,1c0,0-4.625-2.125-5.875-3.375s-5.625-4.125-5.625-4.125s-4.125-3.5-6-4.5s-6-1.5-6-1.5
		l-4.125-1.5l0.625-4l0.625-1.375l3.875,0.25l2.375-1.375l2-1.625l0.625-1.875l-3.5-5.288l-4.125-6.25l-5-9.212L367,443l4.75-0.125
		l6.375,0.5l6,0.25l4.75,0.125l-4.25-6L376,426.125c0,0-3.375-3.25-2.125-6.625s0.791-4.546,1.291-8.296s-0.028-4.659-2.232-12.047
		c-2.151-7.212-4.993-9.879-9.618-15.254S354.375,371.5,354.375,371.5z"/>
	<path fill="#AA9F9F" stroke="#000000" stroke-miterlimit="10" d="M552.333,442"/>
</g>
<g id="pleasant_hills">
	<path fill="#AA9F9F" d="M271.15,332.667c15.85-0.54,21.564-0.508,24.702-0.465c4.5,0.063,14.291-1.1,27.041,3.9
		c13.688,3.813,36.67,15.336,36.67,15.336s9.687,5.326,10.188,5.5c4.125,1.438,3.271,2.43-0.042,4.243s-10.356,6.97-10.356,6.97
		l-6.227,2.6c0,0-5.938-2.313-8.25-4.25s-8.938-3.125-13.625-1.563s-10.5,1.188-10.5,1.188l-9.625-6.25l-9.45-5.125L297,352.625
		l-16.063-0.904c0,0-4.146-3.241-4.521-4.241s-3.291-7.73-3.291-7.73l-1.975-4.95V332.667"/>
</g>
<g id="bagong_silang">
	<path fill="#3BB761" d="M192.833,318.667c0,0,1.61,0.601,3.966,1.525c1.005,0.394,2.146,0.847,3.354,1.338
		c1.301,0.528,2.681,1.1,4.058,1.688c1.343,0.574,2.682,1.164,3.94,1.745c0.519,0.239,1.025,0.478,1.511,0.713
		c1.136,0.549,2.167,1.081,3.024,1.573c0.857,0.492,1.979,1.335,1.979,1.335c2.242-0.518,12.469-6.627,13.5-6.833
		c2.083-0.417,6.5-0.5,6.5-0.5s-2-4.5-2.25-6.667s-1.75-5.417-1.75-5.417l-2.167-2.833c0,0-2.917-3.75-4.167-4.667
		s-4.167-2.917-4.417-2.917s-1.251,1.25-3.25,0s-3.416-3.167-2.583-5.083c0.75-1.25,2.667-4.083,0.417-5
		c-2.083-1.75-5.167-4.667-5.167-4.667s-2.417,0.75-4.917,0s-4.75-3.25-4.75-3.25s-1.917,2-2.25,2.875l-3,6.542l-2.75,5.167
		l-4.333,6.25l-1.5,3.083v2c0,0,0.167,0.623,0.667,0.937s0.083,1.063-0.667,1.647s-1.083,2.667-1.083,2.667l0.417,1l3.75,0.833
		l2.25,1.333l1.75-0.25l0.333,1.417l-0.5,1.75L192.833,318.667z"/>
</g>
<g id="daang_bakal">
	<path fill="#C97D7D" d="M144,298.875l9.601,3.691l5.468,2.102L170.333,309l8,4.333l8.333,3l4,2l1.583-1.833c0,0-7-2.5-7.5-3
		s-3-1-2-2.125s2.625-2.544,2-3.772s-0.375-5.353,1.75-7.853s4.125-5.75,4.125-5.75l4.125-8.25l2.375-3.5l1.375-1.5
		c0,0-4.625-1.5-5-3.125c-1.625-1.125-2.25-2-2.25-2s-1.25,0.625-2.625,0s-2.125-2.375-2.125-3.125s-2.125-3.125-6.125-2.125
		c-2,1.625-7.875-1.625-7.875-1.625l-7.375-6.125c0,0-5.875-1.75-8.5,3.125c-2.375,4.625-5.375,6.25-5,8.625S152,281.75,152,281.75
		l-0.125,2.625l-0.125,3.25l-2.25,3.75L146.375,295L144,298.875"/>
</g>
<g id="harapang_ang_bukas.">
	<path fill="#1936DD" d="M148.875,307.125l4.125-4.063c0,0,22.25,7.438,25,10.625c4.313,1.5,10.75,4.646,10.75,4.646
		s-1.438,2.042-1.938,2.542s-4.438,4.313-4.438,4.313s-2.563,2.542-3,3.396S177.5,331,177.5,331l-5.313-4.25l-3.375-1.938
		l-5.75-5.063l-6.5-5.938l-5.688-4.75l-1.063-1.25l-0.438-0.563"/>
</g>
<g id="namaayan">
	<path fill="#77D2DB" d="M142,433l3.75,17.5l-26,2c0,0-15.25,2.25-22.5,11.5l-13.065-7.408L73,450.25c0,0-6.5-4.75-11-7.5
		s-11.75-7.75-5.25-22.5c7.75-6.75,16.75-15.75,19-19.75s3.75-7,3.75-7l17.25,9.25c0,0-3,8.725-3.5,19.112
		c1.25,0.638,15.5,1.362,18.5,0s6.75-3.112,6.75-3.112l8.75,1c0,0,5.25,4.75,7,6.25"/>
</g>
<g id="mabini_rizal">
	<path fill="#37344F" d="M79.75,392.833c0,0,5.955-8.153,7.167-9.5c1.167-4-0.25-7.667,2.167-10.083
		c1.493-1.493,6.484-5.976,10.083-9.185c2.226-1.985,3.917-3.482,3.917-3.482v-2.5c0,0,0.417,0.417,1.917-0.667
		s4.667-4.583,4.667-4.583s-0.083-2.417-1.083-3.417s-2.083-1.25-0.167-2.833s6.417-6.583,6.417-6.583s3.75,0.834,7.833,7.417
		c4.333,5.667,8.583,12.417,9.75,15.167c0-0.333,1.021,6.042,1.021,6.042l-9.125,0.5l-3.616,3.45l-2.78,5.259l-6.967,6.937
		l-1.479,5.262l1.196,9.301c0,0-1.166,4.25-0.75,5.917s1.667,3.751,3.417,6.584c2.25,2.5,4.5,4.916,4.5,4.916l-0.167,1
		c0,0-2.084,0.417-4.167,1.667s-6.75,1.913-6.75,1.913H93.902l0.932-8.496l1.333-6.334l1.167-3.583l-8.167-5.083L79.75,392.833"/>
</g>
<g id="mabining">
	<path fill="#5532BF" d="M119.583,418.25l7.25,1c0,0,5.917,5.001,10.667,7.417c4.083,3.416,5.083,4.75,5.083,4.75h1.083l3.5,19
		v0.917l8.083-2.167c0,0,0.583-0.249,1.25,2.167s5,13.833,5,13.833l6.833-13.5l13.083-22.917l-17.25-29.417l-0.083-0.916
		l-5.167,2.75L157,401.583c0,0-5.583-7.333-6.5-9.333s-4.583-5.25-4.75-6.833s-1.667-2.167-1.667-2.167s-1.25-0.667-2.167,0.417
		c-0.25,0.5-1.833-0.167-1.833-0.167s-1.417-3.75-3.167-1.333c-0.5,1-4,0.667-4,0.667s-2.167-2.833-1.25-4.917
		s-0.583-2.667-0.583-2.667l-1.417-0.417c0,0-1.167,1-1.417-0.5s-0.417-2-0.417-2s0.833-1.917-5,0.5
		c-0.25,1.167,0.48,6.473-3.25,6.667c-3.524,0.183-9.491,5.299-9.907,9.799c-0.087,5.089,1.164,9.179,1.074,13.326
		c-0.098,4.5,0.428,5.439,2.845,7.939S119.583,418.25,119.583,418.25z"/>
	<path fill="#5532BF" d="M232.25,546.5"/>
</g>
<g id="poblacion">
	<path fill="#BFD8B4" d="M134.917,369.917v-7l-5.583-9.417c0,0,10.519-7,17.051-8.25c7.282-2.667,21.2-6.75,23.783-7.25
		c1.75,1.167,22.083,18.417,22.083,18.417s2.75,1.333,2.583,1.75s-4.417,3.917-4.75,4.25s-8.417,6.25-9.583,6.5
		s-8.333-0.583-8.917-0.583s-1.25-0.583-1.25-0.583s-0.5,9.667-0.75,10.833s-6,4.667-6,4.667L163,384.333l6.25,9.167l-11.833,6.334
		l-12.083-17.084c0,0-2-1.833-3.083-0.917s-1.833,0.08-2.5-1.168s-2.5-0.999-3.75,0.335c-0.667,0.333-3.063,0.917-2.563-3.167
		c-0.833-2.583-0.854-3.417-2.854-3.583s-2.833-3.083,0.167-3.333"/>
</g>
<g id="new_zaniga">
	<polyline fill="#E50C7E" points="164.192,399.376 181.417,426.834 206.5,384.667 214.333,370.75 206.5,373.5 194,361.5 
		181.417,369.833 180.167,370.75 171.333,369.667 171.833,379.167 171.833,380.665 165.167,384.333 168.813,390.167 168.813,391.5 
		171,394.167 169.833,395.167 165,398.667 164.192,399 	"/>
</g>
<g id="vergara">
	<path fill="#AA9F9F" d="M98.125,465.167"/>
	<path fill="#6961BA" d="M98.125,464c0,0,3.642-9.934,34.471-11.857c1.979-0.124,4.07-0.215,6.279-0.268
		c7.375-0.375,16.91-2.326,16.91-2.326l5.09,15.618l1,4.583l-5,7.5l-3.75,7l-4.125,7.5l-1.25,2.625l-0.625,1.25l-48.47-30.733
		L97.25,464H98.125z"/>
</g>
<g id="burol">
	<path fill="#00E889" d="M159.825,318.193l-0.684,21.614l16.358-5.474c0,0,4.127-2.673-0.133-5.75s-14.729-11.224-14.729-11.224"/>
</g>
<g id="pag_asa">
	<path fill="#00E889" d="M115.167,338"/>
	<path fill="#22EAEF" d="M115.833,338.833c0,0,0.227,0.204,0.619,0.562c1.214,1.108,4.015,3.689,6.582,6.237
		c2.226,2.209,4.276,4.395,4.966,5.575c0.242,0.454,10.927-5.301,20.91-8.748c3.775-1.304,7.451-2.277,10.423-2.46
		c-0.167-2.833,0.833-22.969,0.833-22.969l-11.292-9.906l4.125-4.063l-10.167-3.896c0,0-2.833,2.333-8.5,5.5
		S122,315.167,122,315.167l5.333,5.833l3.167,2.667l2.167,3.636L131,329.083l-6.167,4.25l-4.5,3.333"/>
</g>
<g id="san_jose">
	<path fill="#00E889" d="M161.875,466.166l7.458,7.334c0,0,0-8.5,3.667-15.5s16.263-30,16.263-30s8.237-14.333,11.571-20
		c2.74-4.657,9.418-16.069,11.711-19.987c0.498-0.849,0.789-1.347,0.789-1.347l10.051-16.481v-3.852l-9.051,3.5l-1.5,5l-4.997,7.46
		L199.759,396l-6.469,10.875l-11.873,19.959"/>
</g>
<g id="hagdan_ipaas">
	<path fill="#362256" d="M171.25,337l23.583,21.167l11.042,13.446c0,0,11.625-1.787,18.125-7.012c1.5-2.85,2.125-7.883,1.75-13.367
		s-3.209-20.233-16.042-24.358C197.375,321.625,190,319,190,319l-3.188,1.875l-4.438,4.313l-3.425,4.062
		c0,0-0.572,1.102-1.741,2.877S173.25,336,173.25,336L171.25,337z"/>
</g>
<g id="libis">
	<path fill="none" stroke="#29473A" stroke-miterlimit="10" d="M215.67,329.988c0,0,15.876,10.178,10.187,33.678"/>
</g>
<g id="hulo">
	<path fill="#49E25E" d="M148,498.295l13.875-28.545l7.458,3.75c0,0-1.253,9.764,10.635,19.098s81.102,62.299,81.102,62.299
		L288.25,570.5c0,0-30.768,10.167-49.009,3.5C225.667,563.667,180,523.008,180,523.008l-23.333-19.341L148,498.295z"/>
</g>
<g id="plainview">
	<path fill="#ED00ED" stroke="#30E295" stroke-miterlimit="10" d="M204.802,401.237c0,0,23.115,14.263,30.032,23.763
		c7.28,8.572,14.115,15.646,27.67,19.313c3.048,0.825,6.437,1.478,10.246,1.937c16.25,5.5,43.605,15.208,51.737,12.884
		C332.5,458.75,331,461,331,461l-8.25,11.587L315,482l-3.25,5.25l-8-4.5L303,481.5l-3,4l-8.5,8.75l-10,12.25l-4.75,7.25L275,516
		c0,0-4-2.5-3.75-5.25s0.413-3.75-3.293-2.75s-4.457,1-6.957-1s-4.75-5-6.25,3.25s-3.25,12.75,1.5,16c0.5,1.25-4.25,3.5-4.25,3.5
		l-6.25,2l-4.5,2.5l-3.06,3.653l-6.674-5.144l-31.515-24.292L184,495.625L173.846,488c0,0-6.251-9.896-4.219-18.43
		s11.79-26.07,11.79-26.07l9.833-18.25l7.5-12.75L204.802,401.237z"/>
</g>
<g id="barangka_drive">
	<path fill="#176041" d="M239.241,538.712l6.423,4.481l6.711,4.682c0,0,2.75-3,5.375,0c4.375,0.875,17.625,1.375,17.625,1.375
		s2.375-0.375,0.875-2.75s-2-3.25-2-3.25l6.625-7l2,2.75c0,0,2.625-2.875,2.75-3.5s0-3.125,0-3.125s3.25-1.375,5.25-3
		s9.125-9.5,9.125-9.5l7.25-9.5l4.25-5l5.375-8l2.375-3.25l-7.25-5.5l-9.675-6.225L296,491.25l-5.875,6.375L279.875,510
		l-3.125,5.825l-2,2.55c0,0-4.25-8.125-4.25-9.875s-4.125,2-6,1.125s-5.353-3.199-7.125-4.25c-1,0.75-1.972,5.519-2.875,10.45
		c-1.538,8.396,3,10.8,3,10.8l-2,2.25c0,0-10,4-13.125,6S239.241,538.712,239.241,538.712z"/>
</g>
<g id="malamig">
	<path fill="#CD00EA" stroke="#30E295" stroke-miterlimit="10" d="M311.75,487.25l21.5-27c0,0,4.875-7.125,16.375-10.125
		c0.375-0.25,13,24.125,15.375,29c2.102,0.601,5.736,0.931,9.659,1.911c2.608,0.651,5.345,1.591,7.841,3.089
		c5.75,3.5,17.625,10.625,17.625,10.625s-2.375,5.625-4.75,7.75s-9.5,9.5-9.875,15c-1.875,0.5-9.125-3-11.75-4.375
		s-12.5-3.375-15-4.75s-12.125-4.5-12.125-4.5l-9.125-6.625c0,0-1.25-2.625-5.438,3.5c0.313,2.75-0.951,6.625-0.951,6.625
		s-4.236,2.5-9.736,4.875s-13.5,6.875-7.25-1.5c1.625-1.75-2.375-4.625-2.375-4.625l8.625-12.375l-8.625-5.286"/>
</g>
<g id="barangka_ibaba">
	<path fill="#CFFFEA" d="M252.375,547.875c0,0,13.227,10.027,24.229,16.791c4.681,2.877,8.959,5.162,11.646,5.834
		c5.125-0.875,17-4,17-4s-0.5-4.123-1-6.749s-3.875-20.626,1-23.751c4.875-4.75,8.25-4.125,9.125-5.875s-0.875-1.25-1.125-5.75
		s-1.5-7.5-1.5-7.5s-1.372,0.043,0.753-5.707c2.876-1.551-3.399-6.649-1.645-5.038l-4.233,5.37l-4.85,6.049l-7.863,8.867
		l-3.037,2.959l1.107-1.011"/>
</g>
<g id="itaas">
	<path fill="#315946" d="M306,566.001c0,0-2.359-10.062-2.848-18.656c-0.269-4.729,0.028-9.016,1.597-10.936
		c6.375-4.39,10.585-5.575,10.585-7.075s-2.588-8.055-2-11s12.105-7.957,12.105-7.957l6.623-2.71c0,0,1.104-2.167,1.104-4.5
		s1.354-6.779,7.011-3.973c4.322,4.307,6.322,6.474,5.989,9.807s-1,3.166-1,3.166l0.167,4.5l-5.667,4.208l5.333,8.959l-3.333,2.313
		l-3.833,2.187l-3.5,2.5l-3.223,3c0,0,0.014,0.5,0.951,3s2.438,4.667,3.604,8.667c1.333,2,1.833,4,1.833,4l2,3.166l0.167,1.334"/>
</g>
<g id="ilaya">
	<path fill="#BBE50A" d="M340.334,559.167l-8.271-17.5c0,0,3.438-7.873,11.104-9.52c3.167-1.313-2.833-11.272-2.833-11.272
		s4.703-3.375,5-4.208s1.438-0.591,0.869-2.166c-0.964-2.667,1.209-6.871,0-9.126s15.131,3.458,26.964,8.792
		S385,519.501,385,519.501s-0.167-4.166,7-11.5s13.5-17.834,13.5-17.834l8-11.042l4.347-5.476l11.099,7.437l-9.778,13.415
		l9.778,10.874l0.722,0.755l-6.5,4.037l-0.667,14.5c0,0,3.5,4.627,3,7.48s-5.001,6.52-7.667,8.02S411,543.501,411,543.501
		s-2.499,6-3.333,9.833s-0.334,8-0.334,8h-36.5l-31.166-1.333"/>
</g>
<g id="biayang_bato">
	<path fill="#BC5900" d="M408.5,561.334c0,0-1.24-15.632,4.26-18.632c7.334-3.833,9.202-4.688,11.368-7.854
		c1.166-2.5,1.379-5.852-0.621-8.685s-0.378-15.172-0.378-15.172s4.538-4.399,6.538-4.861s11.166-9.874,15.333-7.835
		c2.333,0.539,2.822-3.094,7.775-8.887S464,477.747,464,477.747l0.747-3.704l8.216-5.104l5.537-3.439l8.5-12.75l5,3.418
		c0,0-13,16.834-14,18.5s-10.167,10.166-11.5,11.833s-4.333,2.333-4.333,2.333s1.333,1.668,4.333,3.834s20.5,16,20.5,16
		l-22.166,8.881l-1.167,1.119l5,7.333l-5.167,3l-14.666,9.313l-1.667-2.646l-1.333-1.167l0,0l-8.322,3.402l0.155,6.265l-3.167,9.666
		l-4.833,13.334c0,0-16.332-5.834-19.333-5.834"/>
</g>
<g id="hagdang_libis">
	<path fill="#BC5900" d="M225.856,363.667l24.31-2.787l2.471-14.052c0,0,9.363-0.327,11.863,8.673c1.364,0.178,6.667-2,6.667-2
		l-1.792-4.25c0,0,2.5-2.75,2.5-4.5S266.5,343,266.5,343l-8.375-6c0,0,1.185-3.75,1.18-4.874s-0.305-4.376-5.555-3.876l-10.25-12.5
		l-6-7.75c0,0-6.667-3.333-5.083,6.583c1.757,5.503,4.083,7.417,4.083,7.417s-5.451-1.161-7.625-0.366s-13.205,8.354-13.205,8.354
		s13.08,12.262,11.417,22.512"/>
</g>
</svg>
